HIERARCHY
ROOT Hips
{
	OFFSET 0.000000 64.065262 0.000000
	CHANNELS 6 Xposition Yposition Zposition Xrotation Yrotation Zrotation 
	JOINT Spine
	{
		OFFSET 0.000000 6.292297 0.090600
		CHANNELS 3 Xrotation Yrotation Zrotation
		JOINT Spine1
		{
			OFFSET 0.000000 5.243558 0.075535
			CHANNELS 3 Xrotation Yrotation Zrotation
			JOINT Spine1_split
			{
				OFFSET 0.000000 5.243558 0.075535
				CHANNELS 3 Xrotation Yrotation Zrotation
				JOINT Spine2
				{
					OFFSET 0.000000 5.243558 0.075535
					CHANNELS 3 Xrotation Yrotation Zrotation
					JOINT Neck
					{
						OFFSET 0.000000 9.438423 0.135962
						CHANNELS 3 Xrotation Yrotation Zrotation
						JOINT Head
						{
							OFFSET 0.000000 9.228302 3.015700
							CHANNELS 3 Xrotation Yrotation Zrotation
							JOINT HeadTop_End
							{
								OFFSET 0.000000 52.542191 17.170099
								CHANNELS 3 Xrotation Yrotation Zrotation
								End Site
								{
									OFFSET 0.000000 0.000000 0.000000
								}
							}
						}
					}
					JOINT LeftShoulder
					{
						OFFSET 1.478400 4.134277 0.076557
						CHANNELS 3 Xrotation Yrotation Zrotation
						JOINT LeftShoulder_split
						{
							OFFSET 1.478400 4.134277 0.076557
							CHANNELS 3 Xrotation Yrotation Zrotation
							JOINT LeftArm
							{
								OFFSET 5.991047 -2.349594 0.034302
								CHANNELS 3 Xrotation Yrotation Zrotation
								JOINT LeftForeArm
								{
									OFFSET 23.597998 0.000008 -0.000001
									CHANNELS 3 Xrotation Yrotation Zrotation
									JOINT LeftHand
									{
										OFFSET 21.444199 0.000000 -0.000000
										CHANNELS 3 Xrotation Yrotation Zrotation
										JOINT LeftHandThumb1
										{
											OFFSET 2.589020 -1.036728 1.675835
											CHANNELS 3 Xrotation Yrotation Zrotation
											JOINT LeftHandThumb2
											{
												OFFSET 2.946751 -1.701309 1.701307
												CHANNELS 3 Xrotation Yrotation Zrotation
												JOINT LeftHandThumb3
												{
													OFFSET 3.442917 -1.987770 1.987768
													CHANNELS 3 Xrotation Yrotation Zrotation
													JOINT LeftHandThumb4
													{
														OFFSET 2.466549 -1.424057 1.424061
														CHANNELS 3 Xrotation Yrotation Zrotation
														End Site
														{
															OFFSET 0.000000 0.000000 0.000000
														}
													}
												}
											}
										}
										JOINT LeftHandIndex1
										{
											OFFSET 9.649925 -0.500473 2.441592
											CHANNELS 3 Xrotation Yrotation Zrotation
											JOINT LeftHandIndex2
											{
												OFFSET 4.033379 0.000000 0.000000
												CHANNELS 3 Xrotation Yrotation Zrotation
												JOINT LeftHandIndex3
												{
													OFFSET 3.114311 0.000000 0.000000
													CHANNELS 3 Xrotation Yrotation Zrotation
													JOINT LeftHandIndex4
													{
														OFFSET 2.751465 0.000000 0.000000
														CHANNELS 3 Xrotation Yrotation Zrotation
														End Site
														{
															OFFSET 0.000000 0.000000 0.000000
														}
													}
												}
											}
										}
										JOINT LeftHandMiddle1
										{
											OFFSET 9.829708 0.000000 -0.000000
											CHANNELS 3 Xrotation Yrotation Zrotation
											JOINT LeftHandMiddle2
											{
												OFFSET 4.740765 0.000000 -0.000000
												CHANNELS 3 Xrotation Yrotation Zrotation
												JOINT LeftHandMiddle3
												{
													OFFSET 3.909317 0.000000 -0.000000
													CHANNELS 3 Xrotation Yrotation Zrotation
													JOINT LeftHandMiddle4
													{
														OFFSET 2.782539 0.000000 0.000000
														CHANNELS 3 Xrotation Yrotation Zrotation
														End Site
														{
															OFFSET 0.000000 0.000000 0.000000
														}
													}
												}
											}
										}
										JOINT LeftHandRing1
										{
											OFFSET 9.079571 0.251678 -2.277514
											CHANNELS 3 Xrotation Yrotation Zrotation
											JOINT LeftHandRing2
											{
												OFFSET 4.325878 0.000000 -0.000000
												CHANNELS 3 Xrotation Yrotation Zrotation
												JOINT LeftHandRing3
												{
													OFFSET 3.227509 0.000000 -0.000000
													CHANNELS 3 Xrotation Yrotation Zrotation
													JOINT LeftHandRing4
													{
														OFFSET 2.382706 0.000000 0.000000
														CHANNELS 3 Xrotation Yrotation Zrotation
														End Site
														{
															OFFSET 0.000000 0.000000 0.000000
														}
													}
												}
											}
										}
										JOINT LeftHandPinky1
										{
											OFFSET 8.454662 -0.560661 -4.587733
											CHANNELS 3 Xrotation Yrotation Zrotation
											JOINT LeftHandPinky2
											{
												OFFSET 3.283970 0.000000 0.000000
												CHANNELS 3 Xrotation Yrotation Zrotation
												JOINT LeftHandPinky3
												{
													OFFSET 2.585968 0.000000 0.000000
													CHANNELS 3 Xrotation Yrotation Zrotation
													JOINT LeftHandPinky4
													{
														OFFSET 1.952499 0.000000 0.000000
														CHANNELS 3 Xrotation Yrotation Zrotation
														End Site
														{
															OFFSET 0.000000 0.000000 0.000000
														}
													}
												}
											}
										}
									}
								}
							}
						}
					}
					JOINT RightShoulder
					{
						OFFSET -1.478400 4.134273 0.059405
						CHANNELS 3 Xrotation Yrotation Zrotation
						JOINT RightShoulder_split
						{
							OFFSET -1.478400 4.134273 0.059405
							CHANNELS 3 Xrotation Yrotation Zrotation
							JOINT RightArm
							{
								OFFSET -5.991049 -2.349586 -0.034302
								CHANNELS 3 Xrotation Yrotation Zrotation
								JOINT RightForeArm
								{
									OFFSET -23.596397 0.000000 0.000000
									CHANNELS 3 Xrotation Yrotation Zrotation
									JOINT RightHand
									{
										OFFSET -21.446606 0.000000 0.000000
										CHANNELS 3 Xrotation Yrotation Zrotation
										JOINT RightHandThumb1
										{
											OFFSET -2.589405 -1.036880 1.675689
											CHANNELS 3 Xrotation Yrotation Zrotation
											JOINT RightHandThumb2
											{
												OFFSET -2.946491 -1.701157 1.701158
												CHANNELS 3 Xrotation Yrotation Zrotation
												JOINT RightHandThumb3
												{
													OFFSET -3.442833 -1.987717 1.987720
													CHANNELS 3 Xrotation Yrotation Zrotation
													JOINT RightHandThumb4
													{
														OFFSET -2.466621 -1.424103 1.424106
														CHANNELS 3 Xrotation Yrotation Zrotation
														End Site
														{
															OFFSET 0.000000 0.000000 0.000000
														}
													}
												}
											}
										}
										JOINT RightHandIndex1
										{
											OFFSET -9.650314 -0.500763 2.441559
											CHANNELS 3 Xrotation Yrotation Zrotation
											JOINT RightHandIndex2
											{
												OFFSET -4.032570 0.000000 0.000000
												CHANNELS 3 Xrotation Yrotation Zrotation
												JOINT RightHandIndex3
												{
													OFFSET -3.114609 0.000000 0.000000
													CHANNELS 3 Xrotation Yrotation Zrotation
													JOINT RightHandIndex4
													{
														OFFSET -2.751961 0.000000 0.000000
														CHANNELS 3 Xrotation Yrotation Zrotation
														End Site
														{
															OFFSET 0.000000 0.000000 0.000000
														}
													}
												}
											}
										}
										JOINT RightHandMiddle1
										{
											OFFSET -9.829220 0.000000 0.000000
											CHANNELS 3 Xrotation Yrotation Zrotation
											JOINT RightHandMiddle2
											{
												OFFSET -4.741558 0.000000 0.000000
												CHANNELS 3 Xrotation Yrotation Zrotation
												JOINT RightHandMiddle3
												{
													OFFSET -3.908623 0.000000 0.000000
													CHANNELS 3 Xrotation Yrotation Zrotation
													JOINT RightHandMiddle4
													{
														OFFSET -2.783035 0.000000 0.000000
														CHANNELS 3 Xrotation Yrotation Zrotation
														End Site
														{
															OFFSET 0.000000 0.000000 0.000000
														}
													}
												}
											}
										}
										JOINT RightHandRing1
										{
											OFFSET -9.079887 0.251701 -2.277485
											CHANNELS 3 Xrotation Yrotation Zrotation
											JOINT RightHandRing2
											{
												OFFSET -4.325874 0.000000 0.000000
												CHANNELS 3 Xrotation Yrotation Zrotation
												JOINT RightHandRing3
												{
													OFFSET -3.226913 0.000000 0.000000
													CHANNELS 3 Xrotation Yrotation Zrotation
													JOINT RightHandRing4
													{
														OFFSET -2.383308 0.000000 0.000000
														CHANNELS 3 Xrotation Yrotation Zrotation
														End Site
														{
															OFFSET 0.000000 0.000000 0.000000
														}
													}
												}
											}
										}
										JOINT RightHandPinky1
										{
											OFFSET -8.454163 -0.560486 -4.587659
											CHANNELS 3 Xrotation Yrotation Zrotation
											JOINT RightHandPinky2
											{
												OFFSET -3.284775 0.000000 0.000000
												CHANNELS 3 Xrotation Yrotation Zrotation
												JOINT RightHandPinky3
												{
													OFFSET -2.585663 0.000000 0.000000
													CHANNELS 3 Xrotation Yrotation Zrotation
													JOINT RightHandPinky4
													{
														OFFSET -1.952400 0.000000 0.000000
														CHANNELS 3 Xrotation Yrotation Zrotation
														End Site
														{
															OFFSET 0.000000 0.000000 0.000000
														}
													}
												}
											}
										}
									}
								}
							}
						}
					}
				}
			}
		}
	}
	JOINT LeftUpLeg
	{
		OFFSET 7.294000 -3.492199 -1.348700
		CHANNELS 3 Xrotation Yrotation Zrotation
		JOINT LeftLeg
		{
			OFFSET 0.363959 -22.776356 1.166233
			CHANNELS 3 Xrotation Yrotation Zrotation
			JOINT LeftFoot
			{
				OFFSET -0.363954 -24.519972 -1.068663
				CHANNELS 3 Xrotation Yrotation Zrotation
				JOINT LeftToeBase
				{
					OFFSET 1.087091 -12.527323 15.236030
					CHANNELS 3 Xrotation Yrotation Zrotation
					JOINT LeftToe_End
					{
						OFFSET 0.053868 0.133989 7.430298
						CHANNELS 3 Xrotation Yrotation Zrotation
						End Site
						{
							OFFSET 0.000000 0.000000 0.000000
						}
					}
				}
			}
		}
	}
	JOINT RightUpLeg
	{
		OFFSET -7.294000 -3.492199 -0.885100
		CHANNELS 3 Xrotation Yrotation Zrotation
		JOINT RightLeg
		{
			OFFSET -0.363914 -22.776333 0.702670
			CHANNELS 3 Xrotation Yrotation Zrotation
			JOINT RightFoot
			{
				OFFSET 0.363913 -24.520035 -0.924374
				CHANNELS 3 Xrotation Yrotation Zrotation
				JOINT RightToeBase
				{
					OFFSET -1.087056 -12.526639 14.851860
					CHANNELS 3 Xrotation Yrotation Zrotation
					JOINT RightToe_End
					{
						OFFSET -0.053863 0.134314 7.389584
						CHANNELS 3 Xrotation Yrotation Zrotation
						End Site
						{
							OFFSET 0.000000 0.000000 0.000000
						}
					}
				}
			}
		}
	}
}
MOTION
Frames: 4
Frame Time: 0.016667
-1.662012 61.494740 -0.448865 -13.463444 3.702467 -4.525936 3.013173 2.544413 1.182366 1.148425 1.826502 0.449676 0.000000 0.000000 0.000000 1.125459 1.858090 0.452128 5.491601 -2.881329 1.222124 5.412327 -2.884393 1.469257 -0.000000 0.000000 0.000000 0.972707 -13.821455 -12.605341 0.000000 0.000000 0.000000 2.132898 -12.591781 -66.243703 0.000016 -0.650823 0.000027 -30.447662 5.028500 -10.223022 -9.900789 1.256974 11.540130 13.598108 26.324031 11.394532 -12.317043 1.644712 7.010522 -0.000003 0.000001 -0.000000 0.346094 -0.683607 -7.063098 0.233644 1.639499 -16.219049 0.042289 0.703463 -6.881683 -0.000000 -0.000000 0.000003 0.119745 3.542488 -19.910596 0.277327 1.782824 -17.682624 0.309680 1.881227 -18.694429 -0.000000 0.000001 0.000001 -0.328490 3.186698 -29.271547 0.667037 2.716764 -27.584551 0.533789 2.445115 -24.626309 0.000000 0.000002 0.000000 0.311092 4.886150 -28.734476 0.310851 1.884663 -18.729719 0.281939 1.797207 -17.829987 -0.000001 0.000001 0.000000 1.086929 13.071974 15.586411 0.000000 0.000000 0.000000 15.080364 27.706780 57.157670 -0.000008 7.000493 -0.000009 -19.142749 -1.398299 5.032467 -4.664489 -0.446847 -6.141882 12.941691 -29.885756 -15.476813 -14.901664 -3.277718 -11.498637 0.000003 -0.000001 0.000004 0.400774 0.724250 3.959173 0.186977 -1.307689 16.273366 0.033914 -0.561736 6.912671 0.000002 0.000000 -0.000000 0.259974 -3.804601 11.241784 0.184837 -1.300358 16.179700 0.208240 -1.378387 17.180012 -0.000004 0.000002 0.000001 -0.750170 -1.738025 26.209963 0.475675 -2.052286 26.096811 0.372716 -1.827270 23.055456 0.000000 0.000002 0.000001 1.200802 -5.652507 31.432725 0.314716 -1.684548 21.162545 0.288743 -1.615896 20.261145 -0.000002 -0.000003 -0.000001 -15.671007 13.062368 15.638463 35.225676 0.488921 7.615184 -11.803898 -5.051253 -10.322286 -5.804766 0.000007 -0.000001 0.000000 -0.000002 0.000000 2.685711 -11.287274 7.858542 29.509965 -10.371423 -4.653991 -19.505774 -11.557470 2.739290 -8.489170 -0.000009 -0.000004 0.000001 0.000005 0.000001 
-1.629845 61.573627 -0.585576 -13.094550 3.539205 -4.509335 3.159139 2.536066 1.242392 1.217033 1.810209 0.485008 0.000000 0.000000 0.000000 1.193219 1.842692 0.489481 5.349577 -2.801467 1.340609 5.276448 -2.805882 1.570492 -0.000000 -0.000000 0.000000 0.976568 -14.001753 -12.585553 0.000000 0.000000 0.000000 2.437319 -13.358353 -67.027221 0.000000 -0.486981 0.000001 -30.635806 5.207539 -9.923135 -8.156547 2.036676 10.572352 13.040174 26.052712 13.152488 -12.770341 2.240122 7.650530 0.000000 0.000003 0.000001 0.546536 -0.157627 -8.389428 0.236387 1.648903 -16.314733 0.043475 0.713185 -6.977134 -0.000000 -0.000000 -0.000001 0.178942 3.748993 -21.089432 0.280848 1.793862 -17.795855 0.313421 1.892235 -18.807930 -0.000001 -0.000000 -0.000002 -0.271383 3.332321 -29.819199 0.666026 2.714851 -27.563633 0.532589 2.442507 -24.598139 0.000000 -0.000001 -0.000000 0.490012 5.114285 -29.249664 0.308541 1.877857 -18.659524 0.279730 1.790313 -17.759329 0.000001 0.000001 -0.000001 1.072363 13.046700 15.676056 0.000000 0.000000 0.000000 15.152968 27.416746 57.616778 -0.000015 6.912705 -0.000008 -18.894038 -1.374691 3.568495 -3.860460 -0.506726 -6.063231 13.440495 -29.976184 -14.098640 -14.719947 -2.952663 -11.536201 0.000000 0.000000 0.000003 0.439192 1.481010 1.657626 0.187519 -1.309559 16.297301 0.034208 -0.563980 6.940373 0.000002 -0.000000 0.000001 0.196522 -3.563319 9.343922 0.185707 -1.303316 16.217384 0.209136 -1.381331 17.217934 -0.000000 -0.000001 0.000002 -0.808880 -1.388455 24.386229 0.443545 -1.985341 25.184072 0.344170 -1.758744 22.143658 0.000002 0.000004 -0.000001 0.990650 -5.357766 28.621643 0.310014 -1.672342 21.001966 0.284226 -1.603627 20.100581 0.000001 0.000001 0.000004 -15.779793 13.090630 15.492455 34.536370 0.501903 7.437530 -11.286009 -4.987477 -10.152583 -5.787947 0.000008 -0.000006 0.000000 -0.000002 -0.000000 2.324452 -11.291577 7.831709 29.015391 -10.381632 -4.787573 -19.058820 -11.384817 2.760470 -8.481458 -0.000007 -0.000004 0.000000 0.000001 0.000001 
-1.593745 61.654888 -0.713964 -12.725629 3.384061 -4.495969 3.287462 2.524276 1.299234 1.277719 1.789247 0.519733 0.000000 0.000000 0.000000 1.253185 1.822423 0.525941 5.232506 -2.720500 1.469079 5.165546 -2.726222 1.681742 0.000000 -0.000000 0.000000 0.983641 -14.195869 -12.537983 0.000000 0.000000 0.000000 2.579066 -13.907533 -67.837657 0.000012 -0.156719 -0.000012 -31.014024 5.348056 -9.484497 -5.384872 2.854996 8.882054 12.359384 25.673564 15.377409 -13.293517 2.952417 8.285038 0.000002 0.000001 -0.000002 0.764175 0.281245 -9.389923 0.239406 1.659195 -16.419505 0.044786 0.723797 -7.081553 -0.000002 -0.000001 0.000002 0.283759 4.040955 -21.912321 0.284250 1.804362 -17.903565 0.317000 1.902701 -18.916045 0.000001 0.000000 -0.000001 -0.212742 3.455137 -30.088476 0.655805 2.695174 -27.346626 0.523047 2.421580 -24.373486 -0.000000 0.000000 0.000000 0.715641 5.392307 -29.838081 0.303758 1.863647 -18.513166 0.275153 1.775960 -17.612100 0.000003 0.000000 -0.000003 1.058640 12.979284 15.766930 0.000000 0.000000 0.000000 14.927259 26.654149 58.161533 0.000005 6.776558 0.000004 -18.899779 -1.393201 2.750797 -3.345467 -0.493609 -6.331859 13.907026 -30.044581 -12.818109 -14.518860 -2.659499 -11.471974 -0.000003 -0.000001 0.000002 0.530895 2.204805 -0.503133 0.186866 -1.307306 16.268484 0.033959 -0.561886 6.914482 -0.000001 -0.000001 0.000000 0.134698 -3.246109 7.469093 0.186135 -1.304823 16.236618 0.209610 -1.382859 17.237601 -0.000002 -0.000001 0.000001 -0.858757 -1.008267 22.518036 0.426632 -1.949034 24.691967 0.329259 -1.721661 21.652502 -0.000002 -0.000000 -0.000001 0.803036 -5.069933 25.645021 0.305745 -1.661231 20.855658 0.280160 -1.592445 19.954171 -0.000004 -0.000000 -0.000005 -15.864154 13.113746 15.333008 33.818992 0.497485 7.275655 -10.754404 -4.902031 -9.984493 -5.763345 0.000006 -0.000006 0.000001 0.000002 0.000000 1.999820 -11.285471 7.814349 28.474312 -10.391195 -4.919108 -18.598492 -11.221057 2.783466 -8.466938 -0.000009 -0.000001 -0.000001 -0.000002 -0.000000 
-1.556268 61.738560 -0.831094 -12.358327 3.227914 -4.487653 3.398093 2.509399 1.353190 1.329624 1.764105 0.553527 0.000000 0.000000 0.000000 1.304489 1.797771 0.561205 5.141769 -2.637784 1.602246 5.080961 -2.644765 1.797824 -0.000000 -0.000000 0.000000 0.993828 -14.390780 -12.464559 0.000000 0.000000 0.000000 2.677856 -14.454757 -68.636844 -0.000002 0.000002 -0.000001 -31.365728 5.454441 -8.966308 -2.310903 3.545737 6.975667 11.693509 25.245873 17.658312 -13.816621 3.671611 8.852402 0.000000 -0.000000 -0.000002 0.949533 0.587846 -10.008005 0.242306 1.669064 -16.519986 0.046059 0.733967 -7.181608 0.000002 0.000000 -0.000001 0.415309 4.372479 -22.404074 0.287048 1.813036 -17.992677 0.319986 1.911395 -19.005802 0.000001 -0.000000 -0.000000 -0.155853 3.554010 -30.092628 0.639299 2.663060 -26.993681 0.507915 2.387918 -24.012701 -0.000000 0.000000 -0.000000 0.941609 5.661335 -30.366990 0.297809 1.845791 -18.329253 0.269448 1.757904 -17.427108 -0.000001 -0.000000 -0.000001 1.046203 12.889777 15.854368 0.000000 0.000000 0.000000 14.593761 25.705325 58.653607 0.000004 6.619420 -0.000004 -19.111593 -1.470113 2.794801 -3.113933 -0.432237 -6.763447 14.255710 -30.085218 -11.865174 -14.347012 -2.446476 -11.353580 -0.000001 0.000000 0.000003 0.630789 2.740281 -2.039200 0.185906 -1.304011 16.226448 0.033557 -0.558619 6.874040 -0.000000 0.000000 -0.000001 0.093533 -2.956558 6.071168 0.186606 -1.306364 16.256388 0.210103 -1.384440 17.257919 -0.000000 0.000001 -0.000002 -0.894991 -0.674601 21.023858 0.422058 -1.939065 24.557245 0.325251 -1.711526 21.518629 -0.000001 0.000002 0.000003 0.669167 -4.844802 23.187375 0.302010 -1.651339 20.725688 0.276555 -1.582487 19.824100 0.000000 -0.000000 0.000001 -15.922223 13.140694 15.173176 33.077568 0.478490 7.123764 -10.220332 -4.799756 -9.821693 -5.731570 0.000001 -0.000001 -0.000002 -0.000001 -0.000000 1.718907 -11.269885 7.804796 27.884459 -10.399831 -5.040308 -18.128352 -11.053630 2.802929 -8.447347 -0.000004 0.000002 -0.000001 0.000000 0.000002 
